# xmcd CD database file
# Copyright (C) 1997 Ti Kan
# 
# Track frame offsets:
#     150
#     14580
#     26477
#     39857
#     49247
#     60487
#     72555
#     82942
#     95052
#     105222
# 
# Disc length: 1597 seconds
# 
# Revision: 1
# Processed by: cddbd v1.4b41PL1 Copyright (c) Steve Scherf et al.
# Submitted via: DiscPlay 4.0.4
# 
DISCID=77063b0a
DTITLE=Various Artist - Country Music Classics - Volume VIII Early 60's
DYEAR=1900
DGENRE=
TTITLE0=Don't Worry
TTITLE1=Ring Of Fire
TTITLE2=Don't Let Me Cross Over
TTITLE3=The Ballad Of Jed Clampett
TTITLE4=Call Me Mr. Brown
TTITLE5=A Wound Time Can't Erase
TTITLE6=T For Texas
TTITLE7=You're The Only Good Thing (That's Happened To Me)
TTITLE8=Charlie's Shoes
TTITLE9=Sink The Bismark
EXTD=
EXTT0=Marty Robbins
EXTT1=Johnny Cash
EXTT2=Carl Butler and Pearl
EXTT3=Lester Flatt and Earl Scruggs
EXTT4=Skeets McDonald
EXTT5=Stonewall Jackson
EXTT6=Grandpa Jones
EXTT7=George Morgan
EXTT8=Billy Walker
EXTT9=Johnny Horton
PLAYORDER=
